<svg id="Layer_1" xmlns="http://www.w3.org/2000/svg" viewBox="0 0 367.47 282.52"><path d="M186.19,20.26A31.59,31.59,0,0,0,144.21,5h0a31.6,31.6,0,0,0-15.28,42L133.62,57h0c21.11,48.78,38.23,125.83,22,167.75h0L60.22,20.26A31.58,31.58,0,0,0,18.25,5h0A31.58,31.58,0,0,0,3,47L104.3,264.27a31.58,31.58,0,0,0,42,15.28h0a31.4,31.4,0,0,0,8.63-5.94c7.36-6.36,37.3-47.16,27.38-112.23l48,102.89a31.57,31.57,0,0,0,42,15.28h0a31.57,31.57,0,0,0,15.28-42Z"></path><path d="M336,0H282.2a31.44,31.44,0,0,0-27.91,45.9l26.9,51.91c11.73,22.63,44.1,22.63,55.82,0l26.9-51.91A31.44,31.44,0,0,0,336,0Z"></path></svg>